# Blender 4.2.2 LTS
# www.blender.org
mtllib map.mtl
o Cube
v 29.529562 31.628822 -29.529562
v 29.529562 31.610241 29.529562
v -29.529562 32.074463 -29.529562
v 19.862980 0.000000 -19.862980
v -19.862980 0.000000 -19.862980
v 19.862980 0.000000 19.862980
v -19.862980 0.000000 19.862980
v -29.529562 32.074463 29.529562
v 0.000000 31.842350 29.529562
v 0.000000 -7.239513 43.710407
v 9.931490 8.681662 48.543701
v -9.931490 8.681662 48.543701
vn -0.0000 1.0000 -0.0000
vn -0.9563 0.2923 0.0001
vn 0.0022 0.2892 0.9573
vn 0.9575 0.2886 -0.0000
vn 0.8359 0.3732 -0.4024
vn -0.0050 -0.6358 -0.7718
vn -0.7086 0.5688 -0.4175
vn -0.0000 -0.6345 -0.7729
vn 0.7086 0.5688 -0.4175
vn -0.0000 0.9569 0.2905
vn -0.9563 0.2924 -0.0000
vn -0.0000 0.2923 0.9563
vn -0.0050 -0.6332 -0.7739
vn -0.8334 0.3781 -0.4030
vt 1.000000 1.000000
vt 0.000000 0.000000
vt 1.000000 0.000000
vt 0.000000 1.000000
vt 0.250000 0.000000
vt 0.750000 0.000000
vt 0.500000 0.000000
s 0
usemtl Material
f 4/1/1 7/2/1 6/3/1
f 4/1/2 2/3/2 1/1/2
f 5/4/3 1/1/3 3/4/3
f 5/4/4 8/2/4 7/2/4
f 8/2/5 12/5/5 7/2/5
f 2/3/6 11/6/6 9/7/6
f 6/3/7 10/7/7 11/6/7
f 11/6/8 12/5/8 9/7/8
f 10/7/9 7/2/9 12/5/9
f 5/4/1 7/2/1 4/1/1
f 7/2/10 10/7/10 6/3/10
f 4/1/11 6/3/11 2/3/11
f 5/4/12 4/1/12 1/1/12
f 5/4/4 3/4/4 8/2/4
f 8/2/13 9/7/13 12/5/13
f 2/3/14 6/3/14 11/6/14
